<mxfile host="app.diagrams.net" modified="2023-05-16T19:20:05.241Z" agent="Mozilla/5.0 (Macintosh; Intel Mac OS X 10_15_7) AppleWebKit/537.36 (KHTML, like Gecko) Chrome/111.0.0.0 Safari/537.36" version="21.2.2" etag="kLODFUnMvpoaoB8I7tnC" type="github">
  <diagram name="Page-1" id="-6TycJVtZFw_YISIjIt8">
    <mxGraphModel>
      <root>
        <mxCell id="0" />
        <mxCell id="1" parent="0" />
      </root>
    </mxGraphModel>
  </diagram>
</mxfile>
